<svg width="80" height="80" viewBox="0 0 80 80" fill="none" xmlns="http://www.w3.org/2000/svg">
<path d="M58.6667 40.0005L14.75 24.0838C13.9167 23.806 13.32 23.2505 12.96 22.4172C12.5978 21.5838 12.5556 20.7227 12.8333 19.8338C13.1111 18.9449 13.68 18.3194 14.54 17.9572C15.4022 17.5972 16.2778 17.556 17.1667 17.8338L66 35.6672C67.1111 36.1116 68.0556 36.8894 68.8333 38.0005C69.6111 39.1116 70 40.3338 70 41.6672V60.0005C70 61.8338 69.3478 63.4038 68.0433 64.7105C66.7367 66.0149 65.1667 66.6672 63.3333 66.6672H16.6667C14.8333 66.6672 13.2633 66.0149 11.9567 64.7105C10.6522 63.4038 10 61.8338 10 60.0005V46.6672C10 44.8338 10.6522 43.2638 11.9567 41.9572C13.2633 40.6527 14.8333 40.0005 16.6667 40.0005H58.6667ZM36.6667 56.6672H56.6667C57.6111 56.6672 58.4022 56.3472 59.04 55.7072C59.68 55.0694 60 54.2783 60 53.3338C60 52.3894 59.68 51.5972 59.04 50.9572C58.4022 50.3194 57.6111 50.0005 56.6667 50.0005H36.6667C35.7222 50.0005 34.9311 50.3194 34.2933 50.9572C33.6533 51.5972 33.3333 52.3894 33.3333 53.3338C33.3333 54.2783 33.6533 55.0694 34.2933 55.7072C34.9311 56.3472 35.7222 56.6672 36.6667 56.6672ZM23.3333 56.6672C24.2778 56.6672 25.07 56.3472 25.71 55.7072C26.3478 55.0694 26.6667 54.2783 26.6667 53.3338C26.6667 52.3894 26.3478 51.5972 25.71 50.9572C25.07 50.3194 24.2778 50.0005 23.3333 50.0005C22.3889 50.0005 21.5967 50.3194 20.9567 50.9572C20.3189 51.5972 20 52.3894 20 53.3338C20 54.2783 20.3189 55.0694 20.9567 55.7072C21.5967 56.3472 22.3889 56.6672 23.3333 56.6672Z" fill="black"/>
</svg>
